<mxfile host="65bd71144e">
    <diagram id="IjjydHZNGLpz2tJpYeSi" name="Page-1">
        <mxGraphModel dx="786" dy="955" grid="1" gridSize="10" guides="1" tooltips="1" connect="1" arrows="1" fold="1" page="1" pageScale="1" pageWidth="827" pageHeight="1169" background="#F1FAEE" math="0" shadow="0">
            <root>
                <mxCell id="0"/>
                <mxCell id="1" parent="0"/>
                <mxCell id="2" value="Broker" style="rounded=0;whiteSpace=wrap;html=1;sketch=1;fillColor=#d80073;strokeColor=#A50040;fontColor=#000000;fontStyle=1" vertex="1" parent="1">
                    <mxGeometry x="50" y="60" width="240" height="380" as="geometry"/>
                </mxCell>
                <mxCell id="3" value="Registry" style="rounded=0;whiteSpace=wrap;html=1;sketch=1;fillColor=#1ba1e2;strokeColor=#006EAF;fontColor=#000000;" vertex="1" parent="1">
                    <mxGeometry x="50" y="470" width="540" height="60" as="geometry"/>
                </mxCell>
                <mxCell id="4" value="Services" style="rounded=0;whiteSpace=wrap;html=1;sketch=1;fillColor=#A8DADC;strokeColor=#457B9D;fontColor=#1D3557;" vertex="1" parent="1">
                    <mxGeometry x="190" y="550" width="120" height="60" as="geometry"/>
                </mxCell>
                <mxCell id="5" value="Nodes" style="rounded=0;whiteSpace=wrap;html=1;sketch=1;fillColor=#A8DADC;strokeColor=#457B9D;fontColor=#1D3557;" vertex="1" parent="1">
                    <mxGeometry x="50" y="550" width="120" height="60" as="geometry"/>
                </mxCell>
                <mxCell id="6" value="Actions" style="rounded=0;whiteSpace=wrap;html=1;sketch=1;fillColor=#A8DADC;strokeColor=#457B9D;fontColor=#1D3557;" vertex="1" parent="1">
                    <mxGeometry x="330" y="550" width="120" height="60" as="geometry"/>
                </mxCell>
                <mxCell id="7" value="Events" style="rounded=0;whiteSpace=wrap;html=1;sketch=1;fillColor=#A8DADC;strokeColor=#457B9D;fontColor=#1D3557;" vertex="1" parent="1">
                    <mxGeometry x="470" y="550" width="120" height="60" as="geometry"/>
                </mxCell>
                <mxCell id="8" value="Transport" style="rounded=0;whiteSpace=wrap;html=1;sketch=1;fillColor=#A8DADC;strokeColor=#457B9D;fontColor=#1D3557;" vertex="1" parent="1">
                    <mxGeometry x="450" y="380" width="140" height="60" as="geometry"/>
                </mxCell>
                <mxCell id="9" value="Middlewares&lt;br&gt;" style="rounded=0;whiteSpace=wrap;html=1;sketch=1;fillColor=#A8DADC;strokeColor=#457B9D;fontColor=#1D3557;" vertex="1" parent="1">
                    <mxGeometry x="310" y="60" width="120" height="380" as="geometry"/>
                </mxCell>
                <mxCell id="10" value="Logger&lt;span style=&quot;color: rgba(0 , 0 , 0 , 0) ; font-family: monospace ; font-size: 0px&quot;&gt;%3CmxGraphModel%3E%3Croot%3E%3CmxCell%20id%3D%220%22%2F%3E%3CmxCell%20id%3D%221%22%20parent%3D%220%22%2F%3E%3CmxCell%20id%3D%222%22%20value%3D%22Middlewares%26lt%3Bbr%26gt%3B%22%20style%3D%22rounded%3D0%3BwhiteSpace%3Dwrap%3Bhtml%3D1%3B%22%20vertex%3D%221%22%20parent%3D%221%22%3E%3CmxGeometry%20x%3D%22400%22%20y%3D%22150%22%20width%3D%22120%22%20height%3D%2260%22%20as%3D%22geometry%22%2F%3E%3C%2FmxCell%3E%3C%2Froot%3E%3C%2FmxGraphModel%3E&lt;/span&gt;" style="rounded=0;whiteSpace=wrap;html=1;sketch=1;fillColor=#A8DADC;strokeColor=#457B9D;fontColor=#1D3557;" vertex="1" parent="1">
                    <mxGeometry x="450" y="60" width="140" height="60" as="geometry"/>
                </mxCell>
                <mxCell id="11" value="Tracing" style="rounded=0;whiteSpace=wrap;html=1;sketch=1;fillColor=#A8DADC;strokeColor=#457B9D;fontColor=#1D3557;" vertex="1" parent="1">
                    <mxGeometry x="450" y="300" width="140" height="60" as="geometry"/>
                </mxCell>
                <mxCell id="12" value="Metrics" style="rounded=0;whiteSpace=wrap;html=1;sketch=1;fillColor=#A8DADC;strokeColor=#457B9D;fontColor=#1D3557;" vertex="1" parent="1">
                    <mxGeometry x="450" y="220" width="140" height="60" as="geometry"/>
                </mxCell>
                <mxCell id="14" value="Cache" style="rounded=0;whiteSpace=wrap;html=1;sketch=1;fillColor=#A8DADC;strokeColor=#457B9D;fontColor=#1D3557;" vertex="1" parent="1">
                    <mxGeometry x="450" y="140" width="140" height="60" as="geometry"/>
                </mxCell>
                <mxCell id="15" value="Weave core structure" style="text;html=1;strokeColor=none;fillColor=none;align=left;verticalAlign=middle;whiteSpace=wrap;rounded=0;sketch=0;fontColor=#000000;" vertex="1" parent="1">
                    <mxGeometry x="50" y="20" width="220" height="20" as="geometry"/>
                </mxCell>
            </root>
        </mxGraphModel>
    </diagram>
</mxfile>